<?xml version="1.0" standalone="no"?>
<!DOCTYPE svg PUBLIC "-//W3C//DTD SVG 20010904//EN"
 "http://www.w3.org/TR/2001/REC-SVG-20010904/DTD/svg10.dtd">
<svg version="1.0" xmlns="http://www.w3.org/2000/svg"
 width="375.000000pt" height="375.000000pt" viewBox="0 0 375.000000 375.000000"
 preserveAspectRatio="xMidYMid meet">

<g transform="translate(0.000000,375.000000) scale(0.100000,-0.100000)"
fill="#000000" stroke="none">
<path d="M1075 3585 c-166 -27 -267 -77 -386 -195 -138 -136 -189 -259 -189
-460 0 -112 14 -181 52 -257 l23 -48 6 75 c5 69 75 320 88 320 3 0 26 -51 51
-112 54 -134 79 -174 146 -227 l51 -40 6 87 c3 48 13 112 22 142 8 30 20 86
25 123 24 172 124 276 266 277 116 0 206 -70 241 -189 21 -73 13 -206 -16
-280 -20 -50 -21 -55 -6 -80 9 -14 76 -83 148 -153 l132 -128 18 23 c36 45
127 244 147 321 26 105 27 237 0 340 -66 261 -269 429 -560 465 -105 14 -163
13 -265 -4z"/>
<path d="M1051 2905 c-52 -138 -51 -347 1 -383 73 -51 133 -122 158 -186 9
-24 3 -21 -34 21 -46 51 -103 91 -255 179 -89 52 -190 137 -218 185 -10 16
-21 29 -25 29 -17 0 -8 -140 11 -191 l20 -51 -22 7 c-12 3 -69 9 -127 12
l-105 6 42 -36 c72 -59 113 -117 113 -155 0 -27 -44 -62 -148 -118 -98 -53
-217 -127 -225 -141 -3 -5 38 -9 91 -8 114 0 156 -17 186 -79 17 -34 17 -45 6
-114 -7 -42 -14 -82 -17 -89 -3 -8 24 8 60 36 107 81 239 150 347 183 8 3 -23
11 -69 18 l-85 13 40 33 c79 66 198 110 329 120 39 3 84 1 100 -5 l30 -9 -36
-1 c-55 -1 -181 -36 -241 -67 l-53 -27 60 -13 c33 -7 71 -16 85 -22 25 -9 25
-9 -15 -30 -60 -31 -157 -136 -177 -193 -6 -15 -4 -15 25 -1 41 21 141 27 194
13 52 -14 101 -55 119 -98 30 -70 11 -168 -44 -227 l-27 -29 53 7 c29 4 59 9
68 13 27 10 -9 -48 -55 -90 -23 -20 -37 -37 -33 -37 23 0 128 33 163 50 44 23
115 83 129 111 9 15 5 16 -28 12 -55 -7 -77 20 -69 89 3 29 9 62 13 73 7 19 7
19 -13 2 -66 -58 -96 36 -44 143 19 39 19 39 -1 46 -11 3 -49 9 -86 13 l-67 7
75 18 c41 9 120 20 175 23 170 9 211 -20 167 -119 l-18 -43 65 -2 c131 -5 190
-46 200 -140 l6 -58 48 44 c70 65 117 165 123 267 l5 79 -22 -29 c-12 -15 -36
-37 -53 -47 l-31 -19 -11 33 c-6 17 -24 41 -40 52 -27 18 -29 26 -31 84 -1 52
-9 80 -39 140 -33 68 -57 97 -223 261 -219 217 -275 300 -283 415 -2 32 -4 34
-15 20 -29 -40 -42 -179 -23 -231 6 -15 82 -97 170 -183 103 -102 169 -175
189 -211 42 -75 39 -83 -9 -19 -21 30 -110 120 -197 200 -232 214 -296 301
-319 439 l-10 65 -23 -60z m471 -728 c42 -32 106 -122 95 -133 -11 -11 -74 16
-100 44 -14 15 -33 44 -41 64 -29 69 -19 74 46 25z"/>
<path d="M2887 2399 c-61 -14 -131 -55 -219 -126 -97 -78 -143 -107 -158 -98
-17 11 -11 49 15 87 33 49 32 54 -7 27 -107 -75 -240 -231 -301 -354 -56 -113
-55 -121 7 -60 150 146 368 257 563 285 121 18 156 9 49 -13 -218 -44 -391
-143 -599 -346 -87 -84 -197 -210 -197 -224 0 -3 11 -8 24 -11 14 -3 67 -40
117 -81 l93 -74 63 120 c122 235 265 414 373 467 120 60 258 65 364 11 l44
-21 43 25 c24 14 85 38 134 53 77 23 109 27 223 28 l134 1 -43 38 c-147 131
-355 209 -518 194 -36 -4 -105 -19 -153 -33 -47 -15 -94 -24 -102 -21 -39 15
-4 69 74 116 38 23 35 24 -23 10z"/>
<path d="M327 1880 c-127 -129 -200 -259 -226 -402 l-8 -48 39 36 c45 40 74
42 72 4 -1 -14 -13 -69 -27 -122 -67 -253 -51 -511 44 -701 36 -71 105 -171
143 -206 l25 -24 -9 34 c-15 50 -12 105 5 119 13 11 22 5 57 -36 136 -157 251
-235 434 -290 79 -24 105 -27 229 -27 110 0 159 4 229 21 275 68 500 252 671
549 42 72 46 85 34 99 -8 10 -68 62 -134 117 -66 55 -127 106 -136 113 -13 12
-22 3 -70 -63 -79 -111 -196 -216 -298 -266 -80 -40 -89 -42 -175 -42 -78 0
-99 4 -148 27 -79 37 -123 73 -169 142 -63 93 -82 174 -77 314 4 99 10 130 36
200 36 96 86 181 154 263 26 32 48 61 48 65 0 3 -27 4 -60 2 -54 -4 -69 -11
-157 -70 -54 -37 -100 -65 -101 -63 -6 6 30 208 40 228 9 17 8 17 -24 1 -88
-45 -181 -120 -272 -218 -54 -59 -100 -105 -102 -103 -7 7 17 256 32 336 24
124 13 125 -99 11z"/>
<path d="M1425 1848 c-16 -81 15 -140 115 -213 65 -48 79 -72 95 -172 18 -111
48 -159 150 -243 412 -340 395 -315 398 -570 2 -198 11 -230 83 -310 33 -36
125 -100 146 -100 4 0 -5 21 -20 48 -23 40 -27 59 -27 127 0 70 4 86 28 128
16 27 31 46 34 43 3 -3 9 -27 14 -53 5 -26 25 -81 44 -121 109 -229 372 -318
642 -217 69 26 99 43 161 93 52 41 53 54 5 40 -64 -17 -219 19 -276 65 l-28
22 54 -3 c182 -12 377 98 453 255 26 53 29 68 29 163 0 99 -2 109 -33 172 -70
144 -236 247 -396 248 l-50 0 47 -29 c122 -78 145 -245 45 -338 -46 -43 -134
-75 -224 -81 -46 -2 -84 -2 -84 2 0 3 15 26 34 51 60 78 70 200 25 304 -24 55
-63 107 -90 122 -20 10 -21 9 -14 -19 8 -40 -10 -104 -41 -141 -13 -16 -45
-37 -70 -47 -40 -15 -53 -16 -92 -5 -55 14 -57 16 -322 235 -113 93 -220 175
-238 183 -19 8 -64 16 -100 19 -122 10 -127 14 -151 125 -6 31 -20 63 -29 71
-24 21 -78 38 -121 38 -90 0 -166 47 -180 110 l-8 35 -8 -37z"/>
</g>
</svg>
